<svg version="1.2" xmlns="http://www.w3.org/2000/svg" viewBox="0 0 77 54" width="77" height="54"><defs><clipPath clipPathUnits="userSpaceOnUse" id="cp1"><path d="m-822-3185h1920v6874h-1920z"/></clipPath></defs><style>.a{fill:#5a6d9d}</style><g clip-path="url(#cp1)"><path fill-rule="evenodd" class="a" d="m2.8 51.3v-48.5h71.3v48.5zm0.6-0.6h70.1v-47.3h-70.1zm70.4 0.3v-0.3z"/><path class="a" d="m49.5 11.6h1v2.6h-0.5v-2.2h-0.5z"/><path fill-rule="evenodd" class="a" d="m51.9 13.7q0.2 0.1 0.3 0.1 0.3 0 0.5-0.2 0.2-0.3 0.2-0.7-0.1 0.2-0.3 0.3-0.2 0.1-0.4 0.1-0.4 0-0.6-0.3-0.2-0.2-0.2-0.5 0-0.3 0.1-0.5 0.1-0.2 0.3-0.3 0.2-0.1 0.5-0.1 0.3 0 0.6 0.1 0.2 0.2 0.3 0.5 0.1 0.3 0.1 0.6 0 0.4-0.1 0.7-0.1 0.4-0.4 0.5-0.2 0.2-0.6 0.2-0.2 0-0.4-0.1-0.2 0-0.3-0.1l0.1-0.4q0.2 0.1 0.3 0.1zm0.1-1.6q-0.2 0.1-0.2 0.4 0 0.2 0.2 0.3 0.1 0.1 0.3 0.1 0.2 0 0.4-0.1 0.1-0.2 0.1-0.4 0-0.1-0.1-0.3-0.1-0.1-0.4-0.1-0.2 0-0.3 0.1z"/><path fill-rule="evenodd" class="a" d="m55.7 11.8q0.2 0.2 0.2 0.5 0 0.1-0.1 0.3-0.1 0.1-0.3 0.2 0.3 0.1 0.4 0.3 0.1 0.1 0.1 0.3 0 0.3-0.1 0.4-0.1 0.2-0.3 0.3-0.3 0.1-0.6 0.1-0.3 0-0.5-0.1-0.2-0.1-0.3-0.3-0.1-0.1-0.1-0.3 0-0.3 0.1-0.4 0.1-0.2 0.4-0.3-0.2-0.1-0.3-0.2-0.1-0.2-0.1-0.4 0-0.3 0.2-0.4 0.2-0.2 0.6-0.2 0.4 0 0.7 0.2zm-1 1.3q-0.2 0.1-0.2 0.3 0 0.2 0.2 0.3 0.1 0.1 0.3 0.1 0.3 0 0.4-0.1 0.2-0.1 0.2-0.3 0-0.2-0.2-0.3-0.1-0.1-0.4-0.1-0.2 0-0.3 0.1zm0-1.1q-0.1 0.1-0.1 0.3 0 0.2 0.1 0.2 0.1 0.1 0.3 0.1 0.3 0 0.4-0.1 0.1 0 0.1-0.2 0-0.2-0.1-0.3-0.1-0.1-0.4-0.1-0.2 0-0.3 0.1z"/><path class="a" d="m56.6 11.6h2v0.4l-1.1 2.2h-0.5l1-2.2h-1v0.4h-0.4z"/><path class="a" d="m18.1 11.6h1.9v0.4h-1.4v0.7h1.3v0.4h-1.3v0.6h1.5v0.5h-2z"/><path class="a" d="m22.1 12.1q-0.2-0.1-0.3-0.1-0.2 0-0.3 0.1-0.1 0-0.1 0.2 0 0.1 0 0.1 0.1 0.1 0.2 0.2 0.1 0 0.3 0.1 0.3 0 0.4 0.1 0.2 0.1 0.3 0.2 0.1 0.2 0.1 0.4 0 0.3-0.1 0.4-0.1 0.2-0.3 0.3-0.3 0.1-0.5 0.1-0.3 0-0.6-0.1-0.3-0.1-0.5-0.3l0.2-0.4q0.2 0.1 0.4 0.2 0.3 0.2 0.5 0.2 0.2 0 0.3-0.1 0.1-0.1 0.1-0.2 0-0.1-0.1-0.2 0-0.1-0.1-0.1-0.2-0.1-0.3-0.1-0.3-0.1-0.5-0.2-0.1-0.1-0.2-0.2-0.2-0.2-0.2-0.4 0-0.2 0.2-0.4 0.1-0.1 0.3-0.2 0.2-0.1 0.5-0.1 0.2 0 0.5 0 0.2 0.1 0.4 0.2l-0.2 0.5q-0.2-0.2-0.4-0.2z"/><path class="a" d="m23.3 11.6h2.1v0.4h-0.8v2.2h-0.5v-2.2h-0.8z"/><path class="a" d="m26.1 13.7q0.1 0.1 0.1 0.2 0 0.1-0.1 0.2 0 0.1-0.1 0.1-0.1 0-0.2-0.1-0.1-0.1-0.1-0.2 0-0.1 0.1-0.2 0.1 0 0.2 0 0.1 0 0.1 0z"/><path fill-rule="evenodd" class="a" d="m24.5 44.4q-0.5 0.5-1.2 0.5-0.6 0-0.9-0.4-0.4-0.3-0.4-0.8 0-1.2 1.9-2.1 0-0.4 0.1-1.2 0.1-0.7 0.2-1.2 0.1-0.4 0.1-0.6 0.4-0.3 1-0.3 0.2 0 0.5 0.1l-0.7 4.4q-0.2 1.1-0.6 1.6zm-2.4-5.2q0-1 0.9-1.6 0.9-0.7 2.3-0.7 0.8 0 1.4 0.2 0.6 0.1 0.9 0.3 0.4 0.3 0.6 0.6 0.4 0.5 0.4 1.1 0 0.7-0.5 1.2-0.5 0.5-1.2 0.5 0.9 0.1 1.5 0.6 0.7 0.5 0.7 1.3 0 1-0.8 1.6-0.8 0.6-2 0.6-1.1 0-1.5-0.3l0.3-0.9q0.5 0.2 1.1 0.2 0.6 0 1-0.3 0.3-0.4 0.3-1 0-0.6-0.5-1-0.5-0.4-1.4-0.4l0.1-0.7q0.6 0 1-0.3 0.5-0.3 0.5-0.9 0-0.6-0.6-1-0.5-0.4-1.6-0.4-0.6 0-1.3 0.3-0.6 0.4-0.6 0.9 0 0.3 0.2 0.5 0.2 0.2 0.6 0.2l-0.1 0.8q-0.8 0-1.2-0.4-0.5-0.4-0.5-1zm0.7 4.3q0 0.4 0.4 0.4 0.1 0 0.3-0.2 0.1-0.2 0.2-0.6l0.1-0.6q-1 0.5-1 1z"/><path fill-rule="evenodd" class="a" d="m34 44.9q-1 0-1.3-0.7-0.5 0.7-1.3 0.7-0.9 0-1.5-0.6-0.5-0.6-0.5-1.5 0-1.4 0.8-2.2 0.7-0.8 2-0.8 0.6 0 1 0.2 0.3-0.2 0.7-0.2 0.4 0 0.5 0.1 0 0.8-0.1 1.5-0.2 0.8-0.2 1.1-0.1 0.7-0.1 1 0 0.4 0.3 0.4 0.3 0 0.6-0.3 0.3-0.4 0.5-1.1 0.3 0.3 0.4 0.6-0.3 1-0.8 1.4-0.5 0.4-1 0.4zm-1.7-4.3q-0.6 0-1 0.5-0.4 0.5-0.5 1.5 0 0.1 0 0.2 0 0.5 0.2 0.8 0.3 0.3 0.7 0.3 0.6 0 1-0.9l0.2-2.2q-0.3-0.2-0.6-0.2z"/><path fill-rule="evenodd" class="a" d="m38.1 41.2q0-0.5-0.4-0.5-0.4 0-0.7 0.6 1.2 0.8 1.2 2 0 0.7-0.5 1.2-0.4 0.4-1.1 0.4-0.7 0-1-0.4-0.3-0.5-0.3-1.1 0-0.2 0-0.3l0.4-3.2q0.3-0.1 0.7-0.1 0.7 0 0.7 0.5 0.4-0.5 1-0.5 0.5 0 0.7 0.2 0.3 0.3 0.3 0.6 0 0.4-0.3 0.6-0.2 0.2-0.6 0.2h-0.1q0-0.1 0-0.2zm-1.2 0.8q-0.2 1.5-0.2 1.5 0 0.4 0.3 0.4 0.5 0 0.5-0.7 0-0.6-0.6-1.2z"/><path fill-rule="evenodd" class="a" d="m42.4 41.2q0-0.5-0.4-0.5-0.4 0-0.7 0.6 1.1 0.8 1.1 2 0 0.7-0.4 1.2-0.5 0.4-1.1 0.4-0.7 0-1-0.4-0.3-0.5-0.3-1.1 0-0.2 0-0.3l0.3-3.2q0.4-0.1 0.8-0.1 0.6 0 0.6 0.5 0.5-0.5 1.1-0.5 0.5 0 0.7 0.2 0.3 0.3 0.3 0.6 0 0.4-0.3 0.6-0.2 0.2-0.7 0.2 0-0.1 0-0.2zm-1.3 0.8q-0.1 1.5-0.1 1.5 0 0.4 0.3 0.4 0.5 0 0.5-0.7 0-0.6-0.7-1.2z"/><path fill-rule="evenodd" class="a" d="m46.3 39.8q1 0 1.6 0.6 0.7 0.7 0.7 1.5 0 1.4-0.8 2.2-0.8 0.8-1.9 0.8-1.1 0-1.8-0.7-0.6-0.6-0.6-1.5 0-1.3 0.8-2.1 0.8-0.8 2-0.8zm-0.2 0.9q-0.5 0-0.8 0.5-0.3 0.6-0.4 1.4 0 0.6 0.3 1 0.2 0.4 0.7 0.4 0.5 0 0.9-0.5 0.3-0.6 0.3-1.3 0-0.7-0.2-1.1-0.3-0.4-0.8-0.4z"/><path class="a" d="m52 43.7l0.2-2.4q0-0.2-0.1-0.4-0.2-0.2-0.5-0.2-0.3 0-0.6 0.3-0.2 0.3-0.3 0.7-0.3 2.9-0.4 3.1h-1.4l0.6-4.9q0.4-0.1 0.7-0.1 0.7 0 0.7 0.5 0.5-0.5 1.2-0.5 0.7 0 1.1 0.4 0.4 0.3 0.4 0.9 0 0.1 0 0.5-0.3 1.6-0.3 1.9 0 0.4 0.4 0.4 0.7 0 1-1.4 0.4 0.3 0.5 0.6-0.6 1.8-2 1.8-0.6 0-0.9-0.4-0.3-0.4-0.3-0.8z"/><path fill-rule="evenodd" class="a" d="m16.8 22.5q1.5 1.2 1.5 3.7 0 1.6-0.8 2.8-0.7 1.1-2.1 1.8-1.4 0.6-3.3 0.6h-0.9q-0.8 0-1.2 0-1.7 0-2.6 0v-0.2q0.5-0.1 0.7-0.2 0.2-0.1 0.3-0.3 0.1-0.2 0.1-0.8v-7.2q0-0.5-0.1-0.8-0.1-0.2-0.3-0.3-0.2-0.1-0.7-0.1v-0.3q0.7 0 2 0h0.5 0.7q1.2 0 1.7 0 3 0 4.5 1.3zm-5-1q-0.2 0.1-0.3 0.4-0.1 0.3-0.1 0.8v7.2q0 0.6 0.1 0.8 0.1 0.3 0.3 0.4 0.2 0.1 0.7 0.1 1.4 0 2.1-1.3 0.6-1.2 0.6-3.7 0-2.4-0.7-3.6-0.6-1.2-2-1.2-0.5 0-0.7 0.1z"/><path fill-rule="evenodd" class="a" d="m28 30.9q0.2 0.2 0.4 0.3v0.2q-1 0-2.6 0-1.7 0-2.4 0v-0.2q0.5-0.1 0.7-0.2 0.3-0.1 0.3-0.4 0-0.2-0.2-0.7l-0.9-2.3h-2.9l-0.2 0.6q-0.5 1.2-0.5 1.9 0 0.6 0.3 0.8 0.3 0.2 1 0.3v0.2q-1.1 0-1.9 0-0.7 0-1.1 0v-0.2q0.3-0.1 0.7-0.5 0.3-0.4 0.6-1.2l3.2-8.3q0.5 0 0.8 0 0.3 0 0.8 0l3.5 9q0.2 0.5 0.4 0.7zm-4.8-3.6l-1.3-3.7-1.4 3.7z"/><path class="a" d="m38.7 30.8q0.2 0.2 0.5 0.4v0.2q-1.2 0-2.6 0-1.1 0-2.1 0v-0.2q0.5-0.1 0.7-0.1 0.2-0.1 0.2-0.2 0-0.2-0.2-0.4l-2.1-3.6q-0.2-0.3-0.3-0.4-0.2-0.2-0.4-0.2v3.6q0 0.6 0.1 0.8 0.1 0.2 0.3 0.3 0.2 0.1 0.7 0.2v0.2q-0.9 0-2.5 0-1.7 0-2.6 0v-0.2q0.5-0.1 0.7-0.2 0.2-0.1 0.3-0.3 0.1-0.2 0.1-0.8v-7.2q0-0.5-0.1-0.8-0.1-0.2-0.3-0.3-0.2-0.1-0.7-0.1v-0.3q0.9 0 2.6 0 1.6 0 2.5 0v0.3q-0.5 0-0.7 0.1-0.2 0.1-0.3 0.3-0.1 0.3-0.1 0.8v3.3q0.6-0.1 1.2-0.5 0.5-0.3 1.3-1.2l0.5-0.6q0.6-0.7 0.6-1.3 0-0.4-0.3-0.7-0.3-0.2-0.9-0.3v-0.2q1.3 0 2.5 0 0.9 0 1.5 0v0.2q-1.3 0.4-2.4 1.6l-1.4 1.6 3.3 5.7q0.2 0.3 0.4 0.5z"/><path fill-rule="evenodd" class="a" d="m47.4 21.6q1.2 0.6 1.9 1.8 0.7 1.2 0.7 2.8 0 1.6-0.7 2.8-0.7 1.3-2 2-1.2 0.6-2.8 0.6-1.7 0-2.9-0.6-1.2-0.6-1.9-1.8-0.7-1.2-0.7-2.8 0-1.6 0.7-2.8 0.7-1.3 1.9-2 1.3-0.6 2.9-0.6 1.6 0 2.9 0.6zm-4.2 0.3q-0.6 0.6-0.9 1.8-0.3 1.1-0.3 2.6 0 1.5 0.4 2.7 0.3 1.1 0.9 1.8 0.5 0.6 1.2 0.6 0.7 0 1.3-0.7 0.5-0.6 0.8-1.8 0.3-1.1 0.3-2.6 0-1.5-0.3-2.7-0.4-1.1-0.9-1.8-0.6-0.6-1.3-0.6-0.7 0-1.2 0.7z"/><path class="a" d="m60.2 24q0 0.7 0 1.1h-0.3q-0.5-1.9-1.2-2.8-0.8-0.8-1.7-0.8v8.3q0 0.6 0.2 0.9 0.1 0.3 0.4 0.4 0.3 0.1 1 0.1v0.2q-2 0-3.1 0-1.1 0-3 0v-0.2q0.7 0 1-0.1 0.3-0.1 0.5-0.4 0.1-0.3 0.1-0.9v-8.3q-0.9 0-1.7 0.8-0.7 0.9-1.2 2.8h-0.3q0-0.4 0-1.1 0-1.2-0.1-2.8 1.4 0 4.8 0 3.3 0 4.7 0-0.1 1.6-0.1 2.8z"/><path fill-rule="evenodd" class="a" d="m69.4 30.9q0.2 0.2 0.4 0.3v0.2q-1 0-2.6 0-1.7 0-2.4 0v-0.2q0.5-0.1 0.7-0.2 0.3-0.1 0.3-0.4 0-0.2-0.2-0.7l-0.9-2.3h-2.9l-0.2 0.6q-0.5 1.2-0.5 1.9 0 0.6 0.3 0.8 0.3 0.2 1 0.3v0.2q-1.1 0-1.9 0-0.7 0-1.1 0v-0.2q0.3-0.1 0.7-0.5 0.3-0.4 0.6-1.2l3.2-8.3q0.5 0 0.8 0 0.3 0 0.8 0l3.5 9q0.2 0.5 0.4 0.7zm-4.8-3.6l-1.3-3.7-1.4 3.7z"/><path fill-rule="evenodd" class="a" d="m6.7 53.7v-4.2h-2.2v-2.2h-4.2v-40.5h4.2v-2.2h2.2v-4.2h63.5v4.2h2.1v2.2h4.3v40.5h-4.3v2.2h-2.1v4.2zm-5.9-7h4.3v2.2h2.1v4.3h62.4v-4.3h2.1v-2.2h4.3v-39.3h-4.3v-2.2h-2.1v-4.3h-62.4v4.3h-2.1v2.2h-4.3z"/><path fill-rule="evenodd" class="a" d="m42.6 13c0 1-0.4 1.8-1 2.5l0.7 0.7-0.4 0.4-0.7-0.7c-0.7 0.6-1.5 1-2.5 1v1.5h-0.6v-1.5c-0.9 0-1.8-0.4-2.5-1l-0.6 0.7-0.4-0.4 0.6-0.7c-0.5-0.7-0.9-1.5-1-2.5h-1.5v-0.6h1.5c0.1-0.9 0.5-1.8 1-2.5l-0.6-0.7 0.4-0.4 0.6 0.7c0.7-0.6 1.6-0.9 2.5-1v-1.5h0.6v1.5c1 0.1 1.8 0.4 2.5 1l0.7-0.7 0.4 0.4-0.7 0.7c0.6 0.7 1 1.6 1 2.5h1.5v0.6zm-1.4-2.7l-1.5 1.5q0.2 0.3 0.3 0.6h2.1c-0.1-0.8-0.4-1.5-0.9-2.1zm-1.8 2.4c0-0.5-0.4-1-1-1-0.5 0-1 0.5-1 1 0 0.6 0.5 1 1 1 0.6 0 1-0.4 1-1zm-0.7-3.6v2.1q0.3 0 0.6 0.2l1.5-1.5c-0.6-0.5-1.3-0.8-2.1-0.8zm-2.7 0.8l1.5 1.5q0.3-0.2 0.6-0.2v-2.1c-0.8 0-1.5 0.3-2.1 0.8zm-1.2 2.5h2.1q0-0.3 0.2-0.6l-1.5-1.5c-0.5 0.6-0.8 1.3-0.8 2.1zm0.8 2.7l1.5-1.5q-0.2-0.3-0.2-0.6h-2.1c0 0.8 0.3 1.5 0.8 2.1zm2.5 1.3v-2.1q-0.3-0.1-0.6-0.3l-1.5 1.5c0.6 0.5 1.3 0.8 2.1 0.9zm2.7-0.9l-1.5-1.5q-0.3 0.2-0.6 0.3v2.1c0.8-0.1 1.5-0.4 2.1-0.9zm1.3-2.5h-2.1q-0.1 0.3-0.3 0.6l1.5 1.5c0.5-0.6 0.8-1.3 0.9-2.1z"/></g></svg>