<svg version="1.2" xmlns="http://www.w3.org/2000/svg" viewBox="0 0 104 54" width="104" height="54"><defs><clipPath clipPathUnits="userSpaceOnUse" id="cp1"><path d="m-420-3185h1920v6874h-1920z"/></clipPath></defs><style>.a{fill:#5a6d9d}</style><g clip-path="url(#cp1)"><path class="a" d="m55.7 39.8c0 0-0.2 1.1 2.6 2.7 2.8 1.6 6 3.2 9 5.2 1.4 0.9 3.5 2.4 8.2 1.5 4.7-0.9 11.3-1.4 26.1-14.2 1.1-1 2.3-2.1 2-2.4-0.2-0.4-0.7 0-1.6 0.7-0.9 0.8-12.8 9.1-19 11.5-1.7 0.6-2.9 0.8-3.1-0.2-0.2-1.1 0.7-2.4 1.9-3 1.1-0.5 9.1-4.3 15-17 0.9-2.1 1.6-6.3 0.8-6.7 0 0-0.3-0.2-0.5 0.8-0.3 1.1-0.8 4-2 6-1.2 2-7 12.2-14 13.9-1.1 0-2.3 0-3-2.2-0.7-2.2-1.5-4.3-2.1-6.3-0.6-2-0.5-6.7 0.6-9.3 1.1-2.5 1.1-4.4 1.4-5.7 0.2-1.3 0.5-2.1 0.3-2.2-0.1-0.1-0.2 0.1-0.3 0.4-0.1 0.3-1 2.7-1.6 4-0.7 1.3-3.1 5.4-3.2 10-0.1 4.7 3 9 3.2 12.4 0.2 3.3-0.7 6.1-3.4 6.1-2.7-0.1-4.7-1.1-5.2-1.7-0.6-0.7-0.3-1.2 0.3-1.4 0.6-0.1 2.6-0.6 2.6-0.6 0 0 0.7-0.1 0.7-0.7-0.1-0.5-0.2-0.9-0.2-0.9 0 0 0.1-0.4-0.9-0.1-0.9 0.3-1.8 0.5-2.4 0.6-1.2 0.1-1.9 0.3-2.5 0.3-0.7 0-2.5-0.6-4.1-1.5-1.6-0.8-3.5-1.9-4.1-2.8-0.5-0.8-1.4-1.3-1.5-0.5-0.1 0.7 0 3.3 0 3.3z"/><path class="a" d="m48.9 39.8c0 0 0.1 1.1-2.7 2.7-2.8 1.6-5.9 3.2-9 5.2-1.4 0.9-3.5 2.4-8.2 1.5-4.7-0.9-11.3-1.4-26.1-14.2-1.1-1-2.3-2.1-2-2.4 0.2-0.4 0.7 0 1.6 0.7 0.9 0.8 12.8 9.1 19 11.5 1.7 0.6 2.9 0.8 3.1-0.2 0.2-1.1-0.7-2.4-1.8-3-1.2-0.5-9.2-4.3-15.1-17-0.9-2.1-1.6-6.3-0.8-6.7 0 0 0.3-0.2 0.5 0.8 0.3 1.1 0.8 4 2 6 1.2 2 7.1 12.2 14 13.9 1.1 0 2.3 0 3-2.2 0.7-2.2 1.5-4.3 2.1-6.3 0.6-2 0.5-6.7-0.6-9.3-1.1-2.5-1.1-4.4-1.4-5.7-0.2-1.3-0.5-2.1-0.3-2.2 0.1-0.1 0.2 0.1 0.3 0.4 0.1 0.3 1 2.7 1.6 4 0.7 1.3 3.1 5.4 3.2 10 0.1 4.7-3 9-3.2 12.4-0.2 3.3 0.7 6.1 3.4 6.1 2.7-0.1 4.7-1.1 5.2-1.7 0.6-0.7 0.3-1.2-0.3-1.4-0.6-0.1-2.6-0.6-2.6-0.6 0 0-0.7-0.1-0.7-0.7 0.1-0.5 0.2-0.9 0.2-0.9 0 0 0-0.4 0.9-0.1 0.9 0.3 1.8 0.5 2.4 0.6 1.2 0.1 1.9 0.3 2.5 0.3 0.7 0 2.5-0.6 4.1-1.5 1.6-0.8 3.5-1.9 4.1-2.8 0.5-0.8 1.5-1.3 1.6-0.5 0 0.7 0 3.3 0 3.3z"/><path class="a" d="m36.2 25.3q-0.8-1-0.8-3.1v-4q0-2.1 0.8-3.2 0.8-1 2.7-1 1.8 0 2.6 0.9 0.7 0.8 0.7 2.6v0.6h-2.1v-0.7q0-0.6-0.1-1-0.1-0.4-0.3-0.6-0.3-0.2-0.8-0.2-0.6 0-0.8 0.2-0.3 0.3-0.4 0.7-0.1 0.5-0.1 1.1v5.1q0 1.1 0.3 1.6 0.3 0.5 1.1 0.5 0.7 0 1-0.6 0.3-0.5 0.3-1.6v-1.1h-1.3v-1.4h3.3v6.1h-1.5l-0.1-1.1q-0.6 1.3-2.1 1.3-1.7 0-2.4-1.1z"/><path fill-rule="evenodd" class="a" d="m47.3 14.1h2.4l2.4 12.1h-2l-0.5-2.8h-2.1l-0.5 2.8h-2.1zm2 8l-0.8-5.1-0.9 5.1z"/><path class="a" d="m55.6 15.7h-2v-1.6h6.2v1.6h-2v10.5h-2.2z"/><path class="a" d="m62.9 25.5q-0.8-0.9-0.9-2.8l1.9-0.4q0 1.2 0.4 1.8 0.3 0.6 1 0.6 0.5 0 0.7-0.3 0.3-0.3 0.3-0.8 0-0.8-0.3-1.3-0.4-0.4-1-1.1l-1.6-1.3q-0.7-0.6-1-1.3-0.4-0.7-0.4-1.6 0-1.5 0.9-2.3 0.8-0.7 2.3-0.7 1.5 0 2.2 0.9 0.7 0.8 0.8 2.4l-1.9 0.3q-0.1-1-0.3-1.5-0.2-0.5-0.8-0.5-0.5 0-0.8 0.3-0.3 0.3-0.3 0.8 0 0.6 0.2 1 0.3 0.4 0.8 0.9l1.5 1.3q0.8 0.8 1.3 1.6 0.5 0.8 0.5 1.9 0 0.9-0.4 1.6-0.4 0.6-1 1-0.7 0.4-1.6 0.4-1.7 0-2.5-0.9z"/><path class="a" d="m47.4 30.5h0.9v2.4h-0.4v-2h-0.5z"/><path fill-rule="evenodd" class="a" d="m49.7 32.5q0.1 0 0.2 0 0.4 0 0.5-0.2 0.2-0.2 0.2-0.6-0.1 0.2-0.3 0.2-0.1 0.1-0.4 0.1-0.3 0-0.5-0.2-0.2-0.2-0.2-0.5 0-0.3 0.1-0.5 0.1-0.2 0.3-0.3 0.2-0.1 0.4-0.1 0.3 0 0.5 0.2 0.3 0.1 0.4 0.4 0.1 0.3 0.1 0.6 0 0.4-0.1 0.7-0.2 0.3-0.4 0.4-0.2 0.2-0.5 0.2-0.2 0-0.4-0.1-0.2 0-0.4-0.1l0.2-0.3q0.1 0 0.3 0.1zm0-1.6q-0.1 0.2-0.1 0.4 0 0.2 0.1 0.3 0.1 0.1 0.3 0.1 0.2 0 0.4-0.1 0.1-0.2 0.1-0.4 0-0.1-0.1-0.2-0.1-0.2-0.4-0.2-0.2 0-0.3 0.1z"/><path fill-rule="evenodd" class="a" d="m53.2 30.6q0.2 0.2 0.2 0.5 0 0.1-0.1 0.3-0.1 0.1-0.2 0.2 0.2 0.1 0.3 0.2 0.1 0.2 0.1 0.4 0 0.2-0.1 0.4-0.1 0.1-0.3 0.2-0.2 0.1-0.5 0.1-0.3 0-0.5-0.1-0.2-0.1-0.3-0.2-0.1-0.2-0.1-0.4 0-0.2 0.1-0.4 0.1-0.1 0.4-0.2-0.2-0.1-0.3-0.2-0.1-0.2-0.1-0.3 0-0.3 0.2-0.5 0.2-0.2 0.6-0.2 0.4 0 0.6 0.2zm-1 1.3q-0.1 0.1-0.1 0.3 0 0.1 0.1 0.2 0.2 0.1 0.4 0.1 0.2 0 0.4-0.1 0.1-0.1 0.1-0.2 0-0.2-0.1-0.3-0.2-0.1-0.4-0.1-0.2 0-0.4 0.1zm0.1-1q-0.1 0-0.1 0.2 0 0.2 0.1 0.2 0.1 0.1 0.3 0.1 0.2 0 0.3-0.1 0.1 0 0.1-0.2 0-0.2-0.1-0.2-0.1-0.1-0.3-0.1-0.2 0-0.3 0.1z"/><path class="a" d="m54.1 30.5h1.8v0.3l-1 2.1h-0.4l0.9-2h-0.9v0.3h-0.4z"/><path fill-rule="evenodd" class="a" d="m42.7 50q0.3 0.2 0.3 0.6 0 0.3-0.1 0.5-0.2 0.2-0.5 0.2 0.4 0.1 0.6 0.3 0.1 0.3 0.1 0.6 0 0.4-0.3 0.7-0.3 0.2-0.9 0.2h-1.6v-3.4h1.5q0.6 0 0.9 0.3zm-0.5 1q0.1-0.1 0.1-0.3 0-0.2-0.1-0.3-0.1-0.1-0.4-0.1h-0.8v0.8h0.8q0.3 0 0.4-0.1zm0.1 1.5q0.2-0.2 0.2-0.4 0-0.2-0.2-0.3-0.2-0.1-0.5-0.1h-0.8v0.9h0.8q0.3 0 0.5-0.1z"/><path fill-rule="evenodd" class="a" d="m46.8 53.1l-0.3-0.7h-1.7l-0.3 0.7h-0.7l1.5-3.4h0.7l1.5 3.4zm-1.7-1.2h1.1l-0.5-1.5z"/><path fill-rule="evenodd" class="a" d="m50.5 53.1l-0.6-1q0 0-0.1 0h-0.8v1h-0.6v-3.4h1.4q0.7 0 1 0.3 0.4 0.3 0.4 0.9 0 0.4-0.2 0.7-0.2 0.3-0.5 0.4l0.8 1.1zm-1.5-1.5h0.7q0.4 0 0.6-0.2 0.2-0.2 0.2-0.5 0-0.3-0.2-0.4-0.2-0.2-0.6-0.2h-0.7z"/><path fill-rule="evenodd" class="a" d="m54.5 53.1l-0.6-1q0 0-0.1 0h-0.8v1h-0.6v-3.4h1.4q0.7 0 1 0.3 0.4 0.3 0.4 0.9 0 0.4-0.2 0.7-0.2 0.3-0.5 0.4l0.8 1.1zm-1.5-1.5h0.7q0.4 0 0.6-0.2 0.2-0.2 0.2-0.5 0-0.3-0.2-0.4-0.2-0.2-0.6-0.2h-0.7z"/><path fill-rule="evenodd" class="a" d="m58.9 49.9q0.4 0.2 0.6 0.6 0.2 0.4 0.2 0.9 0 0.5-0.2 0.9-0.2 0.4-0.6 0.7-0.5 0.2-1 0.2-0.5 0-0.9-0.2-0.4-0.3-0.6-0.7-0.3-0.4-0.3-0.9 0-0.5 0.3-0.9 0.2-0.4 0.6-0.6 0.4-0.2 0.9-0.2 0.5 0 1 0.2zm-1.5 0.5q-0.3 0.2-0.5 0.4-0.1 0.3-0.1 0.6 0 0.4 0.1 0.6 0.2 0.3 0.5 0.4 0.2 0.2 0.5 0.2 0.3 0 0.6-0.2 0.3-0.1 0.4-0.4 0.2-0.2 0.2-0.6 0-0.3-0.2-0.6-0.1-0.2-0.4-0.4-0.3-0.1-0.6-0.1-0.3 0-0.5 0.1z"/><path class="a" d="m63.2 49.7h0.6v3.4h-0.6l-1.8-2.3v2.3h-0.6v-3.4h0.6l1.8 2.4z"/><path class="a" d="m29.7 8.6l1.8-1.3 0.3 0.4-1.3 1 0.5 0.7 1.2-0.9 0.3 0.4-1.2 0.9 0.8 1-0.5 0.4z"/><path fill-rule="evenodd" class="a" d="m34.6 5.6q0.5-0.1 0.8 0.2 0.4 0.2 0.7 0.6 0.2 0.4 0.2 0.8 0 0.4-0.3 0.8-0.2 0.4-0.6 0.7-0.4 0.2-0.9 0.2-0.4 0-0.8-0.2-0.4-0.2-0.6-0.6-0.2-0.4-0.2-0.8 0-0.5 0.2-0.9 0.2-0.4 0.6-0.6 0.5-0.2 0.9-0.2zm-1 1.1q-0.1 0.2-0.1 0.5 0 0.3 0.1 0.6 0.2 0.2 0.4 0.4 0.3 0.1 0.6 0.1 0.3 0 0.5-0.1 0.3-0.2 0.4-0.4 0.2-0.3 0.2-0.6 0-0.3-0.2-0.5-0.1-0.3-0.4-0.4-0.2-0.2-0.5-0.2-0.3 0-0.6 0.2-0.2 0.1-0.4 0.4z"/><path fill-rule="evenodd" class="a" d="m38.6 3.7q0.5 0 0.8 0.3 0.4 0.2 0.5 0.6 0.2 0.5 0.2 0.9-0.1 0.4-0.4 0.8-0.2 0.3-0.7 0.5-0.4 0.2-0.9 0.2-0.4-0.1-0.8-0.3-0.3-0.3-0.5-0.7-0.2-0.4-0.1-0.9 0-0.4 0.3-0.8 0.3-0.3 0.7-0.5 0.5-0.2 0.9-0.1zm-1.1 1q-0.2 0.2-0.2 0.5 0 0.3 0.1 0.5 0.1 0.3 0.3 0.5 0.3 0.2 0.6 0.2 0.2 0 0.5-0.1 0.3-0.1 0.4-0.3 0.2-0.3 0.3-0.5 0-0.3-0.1-0.6-0.2-0.3-0.4-0.5-0.2-0.1-0.5-0.2-0.3 0-0.5 0.1-0.3 0.1-0.5 0.4z"/><path fill-rule="evenodd" class="a" d="m42.8 2.3q0.4 0.1 0.7 0.4 0.3 0.3 0.5 0.7 0.1 0.5 0 0.9-0.1 0.4-0.4 0.7-0.3 0.3-0.8 0.4l-1.3 0.4-0.9-3.1 1.3-0.3q0.5-0.2 0.9-0.1zm0.3 2.3q0.2-0.2 0.3-0.4 0.1-0.3 0-0.6-0.1-0.3-0.3-0.5-0.2-0.2-0.5-0.2-0.3-0.1-0.5 0l-0.7 0.2 0.6 2 0.7-0.2q0.3-0.1 0.4-0.3z"/><path class="a" d="m48.6 1.7q-0.3-0.1-0.5 0-0.3 0-0.5 0.2-0.3 0.1-0.4 0.4-0.1 0.3-0.1 0.6 0.1 0.3 0.2 0.5 0.2 0.2 0.5 0.3 0.2 0.2 0.5 0.1 0.3 0 0.5-0.1 0.2-0.2 0.4-0.4l0.4 0.4q-0.3 0.3-0.6 0.5-0.3 0.2-0.6 0.2-0.5 0-0.9-0.1-0.4-0.2-0.7-0.6-0.2-0.3-0.3-0.8 0-0.4 0.1-0.8 0.2-0.4 0.6-0.7 0.3-0.2 0.8-0.3 0.3 0 0.7 0.1 0.3 0.1 0.6 0.3l-0.3 0.5q-0.2-0.2-0.4-0.3z"/><path fill-rule="evenodd" class="a" d="m52.8 1.1q0.4 0.2 0.7 0.6 0.2 0.4 0.2 0.9 0 0.4-0.2 0.8-0.3 0.4-0.7 0.6-0.4 0.2-0.8 0.2-0.5 0-0.9-0.2-0.4-0.2-0.6-0.6-0.2-0.4-0.2-0.9 0-0.4 0.2-0.8 0.2-0.4 0.6-0.6 0.4-0.2 0.9-0.2 0.5 0 0.8 0.2zm-1.4 0.5q-0.2 0.1-0.4 0.4-0.1 0.2-0.1 0.5 0 0.3 0.1 0.6 0.2 0.3 0.4 0.4 0.3 0.1 0.6 0.1 0.3 0 0.5-0.1 0.3-0.1 0.4-0.4 0.2-0.2 0.2-0.6 0-0.3-0.2-0.5-0.1-0.3-0.4-0.4-0.2-0.1-0.5-0.1-0.3 0-0.6 0.1z"/><path class="a" d="m55.1 1l0.7 0.1 0.8 2.2 1.3-1.9 0.7 0.1-0.4 3.2-0.6-0.1 0.3-2.3-1.2 1.9-0.4-0.1-0.7-2.1-0.4 2.3-0.5-0.1z"/><path fill-rule="evenodd" class="a" d="m62.3 2.7q0.3 0.4 0.1 0.9-0.1 0.6-0.5 0.8-0.4 0.2-1 0l-0.7-0.2-0.2 0.9-0.6-0.1 0.8-3.1 1.3 0.3q0.6 0.2 0.8 0.5zm-0.7 1.2q0.2-0.1 0.3-0.4 0-0.3-0.1-0.5-0.1-0.2-0.5-0.3l-0.6-0.1-0.3 1.1 0.6 0.2q0.3 0.1 0.6 0z"/><path fill-rule="evenodd" class="a" d="m64.8 6.7v-0.7l-1.5-0.6-0.5 0.6-0.6-0.3 2.5-2.4 0.6 0.2 0.1 3.5zm-1.1-1.7l1.1 0.4v-1.5z"/><path class="a" d="m69.7 5.6l0.5 0.3-1.5 2.8-0.5-0.3-0.4-2.7-1.1 1.9-0.5-0.2 1.5-2.9 0.5 0.3 0.4 2.7z"/><path class="a" d="m73.7 8.2l-2.2 1.1-0.6 0.9-0.5-0.4 0.6-0.8 0.2-2.5 0.6 0.4-0.2 1.7 1.6-0.8z"/></g></svg>