<svg version="1.2" xmlns="http://www.w3.org/2000/svg" viewBox="0 0 73 66" width="73" height="66"><defs><clipPath clipPathUnits="userSpaceOnUse" id="cp1"><path d="m-1018-3179h1920v6874h-1920z"/></clipPath></defs><style>.a{fill:#5a6d9d}</style><g clip-path="url(#cp1)"><path class="a" d="m0.8 36.5h2.4l2 10.6 1.9-10.6h2.4l-3 15h-2.7z"/><path class="a" d="m13 36.5h2.7v15h-2.7z"/><path class="a" d="m19.9 36.5h1.9l3.7 8.5v-8.5h2.2v15h-1.8l-3.7-9v9h-2.3z"/><path class="a" d="m33.3 38.5h-2.5v-2h7.7v2h-2.4v13h-2.8z"/><path fill-rule="evenodd" class="a" d="m43.8 36.5h2.9l3 15h-2.5l-0.6-3.5h-2.6l-0.7 3.5h-2.5zm2.5 9.8l-1-6.3-1.1 6.3z"/><path class="a" d="m53.7 50.4q-0.9-1.3-0.9-3.8v-5.1q0-2.6 1-3.9 0.9-1.3 3.3-1.3 2.2 0 3.2 1.1 0.9 1.1 0.9 3.3v0.8h-2.6v-0.9q0-0.8-0.1-1.3-0.1-0.5-0.4-0.7-0.3-0.3-1-0.3-0.7 0-1 0.3-0.3 0.4-0.4 0.9-0.1 0.5-0.1 1.4v6.2q0 1.3 0.3 2 0.3 0.6 1.3 0.6 0.9 0 1.3-0.7 0.3-0.6 0.3-2v-1.4h-1.6v-1.7h4.1v7.6h-1.8l-0.2-1.5q-0.7 1.7-2.5 1.7-2.1 0-3.1-1.3z"/><path class="a" d="m65.3 36.5h6.3v1.9h-3.6v4.3h2.8v1.9h-2.8v5h3.6v1.9h-6.3z"/><path class="a" d="m14.4 64.4q-0.6-0.7-0.7-2l1.5-0.3q0 0.8 0.2 1.3 0.3 0.4 0.8 0.4 0.4 0 0.6-0.2 0.2-0.2 0.2-0.6 0-0.5-0.3-0.9-0.2-0.4-0.7-0.8l-1.2-1q-0.5-0.5-0.8-1-0.2-0.5-0.2-1.2 0-1.1 0.6-1.7 0.6-0.6 1.7-0.6 1.2 0 1.7 0.7 0.5 0.6 0.6 1.8l-1.4 0.2q-0.1-0.7-0.2-1.1-0.2-0.4-0.7-0.4-0.4 0-0.6 0.3-0.2 0.2-0.2 0.6 0 0.4 0.2 0.7 0.2 0.3 0.5 0.7l1.2 1q0.6 0.5 1 1.1 0.3 0.7 0.3 1.5 0 0.6-0.3 1.1-0.2 0.6-0.8 0.8-0.5 0.3-1.1 0.3-1.3 0-1.9-0.7z"/><path class="a" d="m24.9 57.1h-1.5v-1.2h4.6v1.2h-1.5v7.9h-1.6z"/><path class="a" d="m34.5 61.5l-1.8-5.6h1.5l1.1 3.6 1.1-3.6h1.5l-1.8 5.6v3.5h-1.6z"/><path class="a" d="m43.2 55.9h1.7v8h2.2v1.1h-3.9z"/><path class="a" d="m52.4 55.9h3.8v1.2h-2.1v2.6h1.7v1.2h-1.7v3h2.2v1.1h-3.9z"/><path fill-rule="evenodd" class="a" d="m72.2 5.7c0 0.7-0.5 1.2-1.3 1.6 0 0-1.9 1.1-2 3-0.3 5.7-1.9 9.5-1.9 9.5l-0.3 0.6c-1.7 3.7-6.3 6.4-11.7 6.4-3.7 0-7-1.3-9.2-3.3-1.5-0.9-4.9-3.9-5.9-10.7-0.3-2.3-1.6-4-3.1-4.2q-0.1 0-0.1 0 0 0-0.1 0 0 0 0 0-0.1 0-0.1 0c-1.6 0.2-2.8 1.9-3.1 4.2-1 6.8-4.5 9.8-5.9 10.7-2.2 2-5.6 3.3-9.3 3.3-5.3 0-9.9-2.7-11.6-6.4l-0.3-0.6c0 0-1.6-3.8-1.9-9.5-0.1-1.9-2-3-2-3-0.8-0.4-1.4-0.9-1.4-1.6 0-0.4 0.4-0.9 0.9-1.2 0-0.1 2.7-3.1 11.1-2.9q0.1-0.1 0.2-0.1c1.7-0.3 3.7-0.5 5.8-0.5 4.4 0 8.3 0.9 10.9 2.3h0.1c0 0 3.1 0.5 6.6 0.6 3.5-0.1 6.7-0.6 6.7-0.6 2.7-1.4 6.6-2.3 11-2.3 2 0 4 0.2 5.8 0.5q0.1 0 0.2 0.1c8.4-0.2 11 2.8 11.1 2.9 0.5 0.3 0.8 0.8 0.8 1.2zm-40.4 2.7c0-3.4-5.8-6.1-12.8-6.1-6.2 0-11.4 2.1-12.5 5l-0.3 0.9c-0.2 6.5 1.7 11 1.7 11l0.3 0.5c1.5 3.4 5.4 5.7 10.1 5.7 3.3 0 6.2-1.1 8.1-2.9 1.5-0.9 5.4-4.6 5.4-13.4 0-0.2 0-0.5 0-0.7zm35.3-0.2l-0.3-0.9c-1.1-2.9-6.3-5-12.5-5-7.1 0-12.8 2.7-12.8 6.1 0 0.2 0 0.5 0 0.7-0.1 8.8 3.9 12.5 5.3 13.4 2 1.8 4.9 2.9 8.2 2.9 4.6 0 8.6-2.3 10.1-5.7l0.3-0.5c0 0 1.9-4.5 1.7-11z"/></g></svg>