<svg version="1.2" xmlns="http://www.w3.org/2000/svg" viewBox="0 0 70 70" width="70" height="70"><defs><clipPath clipPathUnits="userSpaceOnUse" id="cp1"><path d="m-1410-3177h1920v6874h-1920z"/></clipPath></defs><style>.a{fill:#5a6d9d}</style><g clip-path="url(#cp1)"><path class="a" d="m2.7 21.1q-0.1 0-0.5 0.1-0.3 0.1-0.3 0.1v-0.6q0.3-0.1 0.6-0.2 0.2-0.2 0.4-0.4h0.6v5h-0.8z"/><path fill-rule="evenodd" class="a" d="m5.7 24.9q-0.3-0.3-0.3-1h0.8q0 0.3 0.1 0.5 0.1 0.1 0.3 0.1 0.3 0 0.4-0.2 0.1-0.2 0.1-0.8v-0.6q-0.1 0.2-0.3 0.2-0.2 0.1-0.4 0.1-1.1 0-1.1-1.4 0-0.8 0.3-1.3 0.3-0.4 1-0.4 0.7 0 1 0.4 0.3 0.5 0.3 1.2v1.8q0 0.8-0.3 1.2-0.3 0.5-1 0.5-0.6 0-0.9-0.3zm1.4-2.6v-0.8q0-0.3-0.1-0.5-0.1-0.3-0.4-0.3-0.2 0-0.3 0.3-0.1 0.2-0.1 0.6 0 0.4 0 0.5 0 0.2 0.1 0.4 0.1 0.1 0.3 0.1 0.3 0 0.5-0.3z"/><path class="a" d="m9.4 24.8q-0.3-0.4-0.3-1.1h0.9q0 0.4 0.1 0.6 0.1 0.3 0.3 0.3 0.2 0 0.3-0.2 0.1-0.1 0.2-0.3 0-0.3 0-0.7 0-0.5-0.1-0.7-0.1-0.2-0.4-0.2-0.2 0-0.3 0.1-0.1 0.1-0.2 0.3h-0.7l0.1-2.8h2.2v0.8h-1.5l-0.1 1.2q0.1-0.1 0.3-0.2 0.2-0.1 0.5-0.1 0.5 0 0.7 0.5 0.3 0.4 0.3 1.1 0 0.6-0.1 0.9-0.1 0.4-0.4 0.7-0.3 0.2-0.8 0.2-0.7 0-1-0.4z"/><path class="a" d="m14.2 20.8h-1.4v-0.7h2.2v0.6l-1 4.4h-0.8z"/><path class="a" d="m54.9 24.5l1.2-1.9 0.1-0.2q0.2-0.3 0.3-0.5 0.1-0.2 0.1-0.5 0-0.6-0.4-0.6-0.3 0-0.4 0.2-0.1 0.2-0.1 0.6v0.2h-0.8v-0.2q0-0.7 0.3-1.1 0.3-0.4 1-0.4 0.6 0 0.9 0.3 0.4 0.4 0.4 1 0 0.3-0.1 0.5-0.1 0.3-0.2 0.5-0.1 0.1-0.4 0.5l-1 1.5h1.5v0.7h-2.4z"/><path fill-rule="evenodd" class="a" d="m58.9 24.8q-0.3-0.4-0.3-1v-2.3q0-0.6 0.3-1 0.3-0.4 1-0.4 0.6 0 0.9 0.4 0.3 0.4 0.3 1v2.3q0 0.6-0.3 1-0.3 0.4-0.9 0.4-0.7 0-1-0.4zm1.4-1.1v-2.1q0-0.4-0.1-0.6-0.1-0.2-0.3-0.2-0.3 0-0.4 0.2-0.1 0.2-0.1 0.6v2.1q0 0.8 0.5 0.8 0.4 0 0.4-0.8z"/><path class="a" d="m63.4 21.1q-0.1 0-0.5 0.1-0.3 0.1-0.3 0.1v-0.6q0.2-0.1 0.5-0.2 0.3-0.2 0.5-0.4h0.6v5h-0.8z"/><path class="a" d="m67.4 20.8h-1.4v-0.7h2.2v0.6l-1 4.4h-0.8z"/><path fill-rule="evenodd" class="a" d="m0.4 52h2.7q1.6 0 2.4 0.6 0.9 0.6 0.9 2.1 0 2.1-1.6 2.4 1.9 0.3 1.9 2.7 0 1.6-0.8 2.4-0.8 0.8-2.3 0.8h-3.2zm2.7 4.6q0.9 0 1.2-0.4 0.3-0.4 0.3-1.3 0-0.8-0.4-1.1-0.4-0.3-1.4-0.3h-0.4v3.1zm0.1 5.1q0.9 0 1.2-0.4 0.3-0.4 0.3-1.4 0-1-0.3-1.5-0.4-0.4-1.3-0.4h-0.7v3.7z"/><path fill-rule="evenodd" class="a" d="m15.1 52h2.2l2.2 11h-1.9l-0.4-2.5h-1.9l-0.5 2.5h-1.9zm1.8 7.3l-0.7-4.7-0.8 4.7z"/><path class="a" d="m26.1 52h2v4.8l2.2-4.8h1.9l-2.1 4.9 2.3 6.1h-2l-1.8-5-0.5 0.8v4.2h-2z"/><path class="a" d="m38.8 52h4.7v1.4h-2.6v3.2h2v1.4h-2v3.7h2.6v1.3h-4.7z"/><path fill-rule="evenodd" class="a" d="m50.2 52h2.6q1.8 0 2.7 0.6 0.8 0.7 0.8 2.3 0 1.1-0.3 1.7-0.3 0.7-1 1l1.5 5.4h-2l-1.4-5h-0.9v5h-2zm2.6 4.8q0.9 0 1.3-0.4 0.3-0.4 0.3-1.3 0-0.9-0.3-1.3-0.3-0.4-1.2-0.4h-0.7v3.4z"/><path class="a" d="m64.9 58.8l-2.3-6.8h1.9l1.4 4.4 1.3-4.4h1.8l-2.2 6.8v4.2h-1.9z"/><path class="a" d="m17.8 66.8h1.2v0.4h-0.6v0.9h0.5v0.3h-0.5v1.4h-0.6z"/><path fill-rule="evenodd" class="a" d="m20.8 66.8h0.7q0.5 0 0.7 0.2 0.2 0.2 0.2 0.6 0 0.3-0.1 0.5 0 0.1-0.2 0.2l0.4 1.5h-0.6l-0.3-1.4h-0.3v1.4h-0.5zm0.7 1.2q0.2 0 0.3-0.1 0.1-0.1 0.1-0.3 0-0.2-0.1-0.4-0.1-0.1-0.3-0.1h-0.2v0.9z"/><path class="a" d="m24.3 66.8h1.2v0.4h-0.7v0.9h0.6v0.3h-0.6v1h0.7v0.4h-1.2z"/><path class="a" d="m27.4 69.6q-0.2-0.2-0.2-0.7l0.5-0.1q0 0.3 0.1 0.5 0 0.1 0.2 0.1 0.1 0 0.2-0.1 0.1 0 0.1-0.2 0-0.1-0.1-0.3-0.1-0.1-0.3-0.2l-0.3-0.4q-0.2-0.1-0.3-0.3-0.1-0.1-0.1-0.4 0-0.3 0.2-0.5 0.2-0.2 0.6-0.2 0.4 0 0.5 0.2 0.2 0.2 0.2 0.6l-0.4 0.1q-0.1-0.3-0.1-0.4-0.1-0.1-0.2-0.1-0.1 0-0.2 0.1-0.1 0-0.1 0.2 0 0.1 0.1 0.2 0 0.1 0.2 0.2l0.3 0.3q0.2 0.2 0.4 0.4 0.1 0.2 0.1 0.5 0 0.2-0.1 0.4-0.1 0.1-0.3 0.2-0.1 0.1-0.4 0.1-0.4 0-0.6-0.2z"/><path class="a" d="m30.5 66.8h0.6v1.3h0.6v-1.3h0.5v3h-0.5v-1.4h-0.6v1.4h-0.6z"/><path fill-rule="evenodd" class="a" d="m36.5 66.8h0.7q0.4 0 0.6 0.2 0.3 0.2 0.3 0.6 0 0.5-0.5 0.6 0.5 0.1 0.5 0.7 0 0.4-0.2 0.7-0.2 0.2-0.6 0.2h-0.8zm0.7 1.2q0.2 0 0.3-0.1 0.1-0.1 0.1-0.4 0-0.2-0.1-0.3-0.1 0-0.4 0h-0.1v0.8zm0 1.3q0.3 0 0.3-0.1 0.1-0.1 0.1-0.3 0-0.3-0.1-0.4-0.1-0.1-0.3-0.1h-0.2v0.9z"/><path fill-rule="evenodd" class="a" d="m39.9 66.8h0.8q0.4 0 0.6 0.2 0.3 0.2 0.3 0.6 0 0.3-0.1 0.5-0.1 0.1-0.3 0.2l0.4 1.5h-0.5l-0.4-1.4h-0.2v1.4h-0.6zm0.8 1.2q0.2 0 0.3-0.1 0.1-0.1 0.1-0.3 0-0.2-0.1-0.4-0.1-0.1-0.3-0.1h-0.2v0.9z"/><path class="a" d="m43.4 66.8h1.3v0.4h-0.7v0.9h0.5v0.3h-0.5v1h0.7v0.4h-1.3z"/><path fill-rule="evenodd" class="a" d="m46.9 66.8h0.6l0.6 3h-0.5l-0.2-0.7h-0.5l-0.1 0.7h-0.5zm0.5 1.9l-0.2-1.2-0.2 1.2z"/><path fill-rule="evenodd" class="a" d="m49.8 66.8h0.7q0.4 0 0.6 0.1 0.2 0.1 0.2 0.3 0.1 0.2 0.1 0.5v1.1q0 0.4-0.1 0.6 0 0.2-0.2 0.3-0.2 0.1-0.6 0.1h-0.7zm0.7 2.5q0.2 0 0.3 0 0-0.1 0.1-0.2 0-0.1 0-0.3v-1.1q0-0.2 0-0.3-0.1-0.1-0.1-0.2-0.1 0-0.3 0h-0.2v2.1z"/><path fill-rule="evenodd" class="a" d="m43.7 22.5l0.1 1.3-0.1-1.3zm-0.3-3.8l0.3-0.3-0.3-0.3zm0 0v0.2-0.2zm0 0.2l0.3 3.6 12 12.1c0.6 0.5 0.6 1.4 0 1.9l-5 5.1c-0.6 0.5-1.5 0.5-2 0l-3.8-3.8 0.5 5.8q0 0 0 0.1c0 0.3-0.2 0.7-0.4 0.9q-0.3 0.3-0.7 0.4 0 0 0 0 0 0-0.1 0 0 0 0 0-0.1 0-0.1 0h-17.6q-0.1 0-0.1 0 0 0 0 0-0.1 0-0.1 0h-0.1q-0.4-0.1-0.6-0.4c-0.3-0.2-0.4-0.6-0.4-0.9q0-0.1 0-0.1l0.5-5.8-3.8 3.8c-0.6 0.5-1.4 0.5-2 0l-5.1-5.1c-0.5-0.5-0.5-1.4 0-1.9l12.1-12.1-0.2 2.4 0.4-4.9-12.3-12.3c-0.5-0.5-0.5-1.4 0-1.9l5.1-5.1c0.6-0.5 1.4-0.5 2 0l10.9 10.9 1.5-1.2c0.3-0.2 0.6-0.3 1-0.3 0.3 0 0.7 0.1 1 0.3l3.1 2.8-1.7-1.5 11-11c0.5-0.5 1.4-0.5 2 0l5 5.1c0.6 0.5 0.6 1.4 0 1.9l-12.2 12.3zm-2.1-4.1l-1.9-1.6zm0 0l0.6 0.4c0.3 0.4 0.8 0.8 1 1q0.1 0.1 0.2 0.2 0 0 0 0.1 0 0.1 0.1 0.1l1.2 1.2 3.2-3.2-5.7-5.7-3.2 3.3zm1.8 1.8q0.1 0 0.1 0.1 0-0.1-0.1-0.1zm-12.9-2.7l1.7-1.8-3.2-3.2-5.6 5.7 3.2 3.2 1.2-1.2q0-0.1 0.1-0.2 0-0.1 0-0.2 0.1-0.1 0.2-0.2 0.1-0.1 0.2-0.2 0.3-0.3 0.6-0.6zm0 0l2.6-2.2-2.6 2.2zm-3.1 6.2l0.1-1.3-0.1 1.3zm0.1-1.3l0.1-0.6-0.3 0.3zm17.6 18.4l0.1 0.7zm-0.5 6.5q0 0 0 0l-2.1-26.5q0-0.2-0.2-0.4-0.1-0.1-0.3-0.1h-13q-0.2 0-0.3 0.1-0.2 0.2-0.2 0.4l-2.1 26.5q0 0.2 0.1 0.3 0 0.1 0.1 0.1h0.1q0 0 0 0h5.5v-7.4c0-0.8 0.6-1.4 1.4-1.5h4c0.8 0.1 1.4 0.7 1.4 1.5v7.4h5.3q0.1 0 0.2-0.1 0.1-0.1 0.1-0.3zm2.1-39.3l5.6 5.6 3-2.9q0.1-0.1 0.1-0.3 0-0.2-0.1-0.3l-5.1-5.1q-0.1-0.1-0.3-0.1-0.2 0-0.3 0.1zm1.8 9.6l3.2-3.2-5.7-5.7-3.2 3.2zm-29.8-3.9l5.7-5.6-2.9-3q-0.2-0.1-0.3-0.1-0.2 0-0.3 0.1l-5.1 5.1q-0.1 0.1-0.1 0.3 0 0.2 0.1 0.3zm3.9 3.9l5.7-5.6-3.3-3.3-5.6 5.7zm21.5 11.1l0.5 5.9 3.2-3.1-3.3-3.3zm-14.3-9.3h11.4l-5.3-4.5q-0.1-0.1-0.4-0.1-0.2 0-0.3 0.1zm-6.5 12.1l3.2 3.2 0.4-6-0.4-0.4zm1.1 10.2l-5.7-5.6-2.9 2.9q-0.1 0.1-0.1 0.3 0 0.1 0.1 0.3l5.1 5q0.1 0.2 0.3 0.2 0.1 0 0.3-0.2zm2-5.8l-3.8-3.7-3.2 3.2 5.6 5.7 1-1 0.3-3.8zm11.7 4.5q0-0.2-0.1-0.3-0.1-0.2-0.3-0.2h-4q-0.2 0-0.3 0.2-0.2 0.1-0.2 0.3v7.4h4.9zm8 0.6l5.7-5.7-3.3-3.2-3.7 3.8v0.3l0.3 3.8zm9.4-1.8q0-0.1-0.1-0.3l-3-2.9-5.6 5.7 2.9 2.9q0.1 0.1 0.3 0.1 0.2 0 0.3-0.1l5.1-5.1q0.1-0.1 0.1-0.3zm-10.9 9.5zm-17.6-1q0 0-0.1 0 0.1 0 0.1 0z"/></g></svg>