<svg version="1.2" xmlns="http://www.w3.org/2000/svg" viewBox="0 0 68 68" width="68" height="68"><defs><clipPath clipPathUnits="userSpaceOnUse" id="cp1"><path d="m-634-3178h1920v6874h-1920z"/></clipPath></defs><style>.a{fill:#5a6d9d}</style><g clip-path="url(#cp1)"><path fill-rule="evenodd" class="a" d="m14.4 33.2h1.6q0.8 0 1.3 0.2 0.4 0.3 0.6 0.7 0.2 0.5 0.2 1.2v2.5q0 0.8-0.2 1.2-0.2 0.5-0.6 0.8-0.5 0.2-1.3 0.2h-1.6zm1.6 5.9q0.4 0 0.6-0.1 0.2-0.2 0.2-0.4 0.1-0.3 0.1-0.8v-2.6q0-0.4-0.1-0.7-0.1-0.2-0.2-0.3-0.2-0.1-0.6-0.1h-0.4v5z"/><path fill-rule="evenodd" class="a" d="m22.5 33.2h1.3l1.3 6.8h-1.1l-0.3-1.6h-1.2l-0.2 1.6h-1.2zm1.1 4.4l-0.4-2.8-0.5 2.8z"/><path class="a" d="m28.3 33.2h1.2v3l1.4-3h1.2l-1.3 3 1.4 3.8h-1.2l-1.2-3.1-0.3 0.5v2.6h-1.2z"/><path fill-rule="evenodd" class="a" d="m35.6 39.5q-0.5-0.5-0.5-1.6v-2.6q0-1.1 0.5-1.6 0.4-0.6 1.5-0.6 1 0 1.5 0.6 0.4 0.5 0.4 1.6v2.6q0 1-0.4 1.6-0.5 0.6-1.5 0.6-1.1 0-1.5-0.6zm2-0.6q0.2-0.2 0.2-0.7v-3.2q0-0.5-0.2-0.7-0.1-0.3-0.5-0.3-0.4 0-0.6 0.3-0.1 0.3-0.1 0.7v3.2q0 0.5 0.1 0.7 0.2 0.3 0.6 0.3 0.4 0 0.5-0.3z"/><path class="a" d="m43.1 34.1h-1.1v-0.9h3.4v0.9h-1.1v5.9h-1.2z"/><path fill-rule="evenodd" class="a" d="m49.5 33.2h1.3l1.3 6.8h-1.1l-0.3-1.6h-1.1l-0.3 1.6h-1.2zm1.1 4.4l-0.4-2.8-0.5 2.8z"/><path fill-rule="evenodd" class="a" d="m21.9 51.1q-0.5 0-0.7-0.3-0.2-0.2-0.3-1 0-0.4 0-1-0.6 0.2-1.1 0.3l-0.3 0.7q0 0.2-0.1 0.3 0 0.1-0.1 0.3 0 0.2-0.1 0.2-0.1 0.1-0.2 0.2-0.1 0.2-0.2 0.2-0.2 0.1-0.5 0.1-0.4 0-0.5-0.2-0.2-0.2-0.2-0.5 0-0.1 0-0.2 0.1-0.7 1.5-1.3 0.3-1 1.3-3.4 0.2-0.1 0.6-0.1h0.3q0.1 0 0.3 0 0 0.4 0.3 4.4 0.1 0.3 0.1 0.4 0.1 0.1 0.2 0.1 0.2 0 0.5-0.2 0.4-0.3 0.7-0.8l0.2 0.6-0.2 0.2q-0.8 1-1.5 1zm-3.8-0.9q0 0.3 0.2 0.3 0.1 0 0.2-0.2 0.1-0.2 0.3-0.8-0.7 0.4-0.7 0.7zm2.6-3.5l-0.7 1.8q0.5-0.2 0.8-0.3z"/><path fill-rule="evenodd" class="a" d="m26 45.5q0.2-0.1 0.5-0.1 0.2 0 0.3 0.1 0 0.6-0.2 1.8-0.3 2.6-0.3 2.9 0 0.3 0.2 0.3 0.2 0 0.4-0.3 0.2-0.2 0.4-0.8 0.2 0.2 0.3 0.5-0.3 0.8-0.9 1.1-0.3 0.1-0.5 0.1-0.7 0-0.9-0.4-0.4 0.4-1 0.4-0.6 0-1-0.4-0.4-0.4-0.4-1.1 0-0.9 0.6-1.5 0.5-0.6 1.4-0.6h0.1q0.3 0 0.5 0.1l0.3-1.9q0-0.1 0.2-0.2zm-1 2.6q-0.4 0-0.7 0.3-0.3 0.4-0.4 1.1 0 0.1 0 0.2 0 0.3 0.2 0.5 0.2 0.3 0.5 0.3 0.4 0 0.7-0.7l0.2-1.6q-0.3-0.1-0.5-0.1z"/><path fill-rule="evenodd" class="a" d="m29.8 49.8q-0.2 0.6-0.6 0.9-0.5 0.4-1 0.4-0.6 0-0.9-0.3-0.3-0.4-0.3-0.9 0-0.1 0-0.2l0.3-2.1q0.2-0.1 0.5-0.1 0.5 0 0.5 0.4 0 0-0.1 1-0.1 0.9-0.1 1.1 0 0.4 0.4 0.4 0.3 0 0.6-0.4 0.4-0.7 0.4-1.6h-0.1q-0.3 0-0.4-0.1-0.2-0.2-0.2-0.4 0-0.3 0.1-0.4 0.2-0.2 0.4-0.2 0.6 0 0.7 0.6 0.3 0 0.4 0v0.4h-0.3v0.2q0 0.7-0.3 1.3zm-0.6-1.9q0 0.1 0.2 0.1h0.1q-0.1-0.2-0.2-0.2-0.1 0-0.1 0.1z"/><path class="a" d="m32.5 49q0.2-0.2 0.2-0.5 0-0.2-0.1-0.3-0.1-0.1-0.3-0.1-0.4 0-0.6 0.4-0.3 0.3-0.3 0.9 0 0.5 0.3 0.8 0.2 0.3 0.6 0.3 0.6 0 1.1-0.4 0.5-0.4 0.8-1 0.2 0.1 0.3 0.3-0.2 0.6-0.9 1.2-0.3 0.2-0.7 0.4-0.4 0.1-0.9 0.1-0.7 0-1.2-0.4-0.4-0.5-0.4-1.3 0-0.8 0.5-1.3 0.6-0.6 1.4-0.6 0.6 0 1 0.2 0.3 0.3 0.3 0.7 0 0.6-0.4 1-0.5 0.3-1.3 0.5l-0.1-0.5q0.5-0.1 0.7-0.4z"/><path class="a" d="m36 50.3l0.2-1.7q0-0.2-0.1-0.4-0.1-0.1-0.3-0.1-0.3 0-0.4 0.2-0.2 0.2-0.3 0.6-0.2 2-0.2 2.2h-1.1l0.5-3.5q0.3-0.1 0.4-0.1 0.5 0 0.6 0.4 0.3-0.4 0.8-0.4 0.6 0 0.9 0.2 0.2 0.3 0.2 0.7 0 0.1 0 0.4-0.2 1.1-0.2 1.3 0 0.4 0.3 0.4 0.5 0 0.7-1.1 0.3 0.3 0.3 0.4-0.4 1.3-1.3 1.3-0.5 0-0.7-0.2-0.3-0.3-0.3-0.6z"/><path fill-rule="evenodd" class="a" d="m39.5 45.9q0 0-0.2 1.6h1.1v0.6h-1.2v0.2q0.9 0.7 0.9 1.6 0 0.6-0.4 0.9-0.3 0.3-0.8 0.3-0.5 0-0.7-0.2-0.3-0.3-0.3-0.6 0-0.1 0.1-0.2l0.2-2h-0.6q0-0.1 0-0.3 0-0.1 0-0.3h0.7l0.2-2q0.2-0.1 0.4-0.1 0.6 0 0.6 0.5zm0.1 4q0-0.6-0.5-1.1-0.1 1.1-0.1 1.3 0 0.4 0.2 0.4 0.2 0 0.3-0.2 0.1-0.1 0.1-0.4z"/><path class="a" d="m43.7 47.6q-0.3 2.4-0.3 2.6 0 0.3 0.2 0.3 0.2 0 0.5-0.3 0.2-0.3 0.3-0.8 0.3 0.3 0.3 0.4-0.2 0.7-0.5 1-0.4 0.3-0.8 0.3-0.7 0-0.9-0.5-0.4 0.5-1 0.5-0.6 0-0.9-0.2-0.2-0.3-0.2-0.7 0-0.1 0-0.4 0.2-1.4 0.3-2.2 0.2-0.1 0.4-0.1 0.2 0 0.3 0 0.1 0 0.2 0.1 0.1 0.1 0.1 0.3l-0.3 1.9q0 0.1 0 0.2 0 0.4 0.4 0.4 0.4 0 0.6-0.4 0 0 0-0.2l0.3-2q0-0.1 0.2-0.2 0.2-0.1 0.4-0.1 0.3 0 0.4 0.1z"/><path fill-rule="evenodd" class="a" d="m46.4 48.5q0-0.4-0.3-0.4-0.3 0-0.5 0.4 0.8 0.7 0.8 1.5 0 0.5-0.3 0.8-0.3 0.3-0.8 0.3-0.5 0-0.7-0.3-0.3-0.3-0.3-0.7 0-0.2 0-0.2l0.3-2.3q0.3-0.1 0.6-0.1 0.4 0 0.4 0.3 0.3-0.3 0.8-0.3 0.3 0 0.5 0.1 0.2 0.2 0.2 0.5 0 0.2-0.2 0.4-0.2 0.1-0.5 0.1 0-0.1 0-0.1zm-0.9 0.6q-0.2 1-0.2 1 0 0.4 0.3 0.4 0.3 0 0.3-0.6 0-0.4-0.4-0.8z"/><path class="a" d="m49.4 49q0.2-0.2 0.2-0.5 0-0.2-0.2-0.3-0.1-0.1-0.3-0.1-0.3 0-0.6 0.4-0.2 0.3-0.2 0.9 0 0.5 0.2 0.8 0.3 0.3 0.7 0.3 0.5 0 1-0.4 0.5-0.4 0.9-1 0.1 0.1 0.3 0.3-0.3 0.6-0.9 1.2-0.3 0.2-0.8 0.4-0.4 0.1-0.8 0.1-0.8 0-1.2-0.4-0.5-0.5-0.5-1.3 0-0.8 0.6-1.3 0.6-0.6 1.4-0.6 0.6 0 0.9 0.2 0.4 0.3 0.4 0.7 0 0.6-0.5 1-0.4 0.3-1.2 0.5l-0.1-0.5q0.4-0.1 0.7-0.4z"/><path class="a" d="m29.8 55.1q0 0-0.3 0.1-0.3 0.1-0.3 0.1v-0.5q0.2-0.1 0.4-0.2 0.3-0.1 0.4-0.2h0.5v3.8h-0.7z"/><path fill-rule="evenodd" class="a" d="m32.1 58q-0.2-0.3-0.2-0.7v-0.1h0.6q0 0.3 0.1 0.4 0 0.1 0.2 0.1 0.2 0 0.3-0.2 0-0.1 0-0.6v-0.4q0 0.1-0.2 0.2-0.1 0-0.3 0-0.8 0-0.8-1.1 0-0.6 0.3-0.9 0.2-0.3 0.7-0.3 0.5 0 0.8 0.3 0.2 0.3 0.2 0.9v1.3q0 0.6-0.2 1-0.2 0.3-0.8 0.3-0.5 0-0.7-0.2zm1-2v-0.6q0-0.2 0-0.4-0.1-0.2-0.3-0.2-0.2 0-0.2 0.2-0.1 0.2-0.1 0.5 0 0.3 0 0.4 0 0.2 0.1 0.2 0.1 0.1 0.2 0.1 0.2 0 0.3-0.2z"/><path class="a" d="m34.9 57.9q-0.2-0.2-0.2-0.8h0.7q0 0.3 0 0.5 0.1 0.1 0.3 0.1 0.2 0 0.2-0.1 0.1-0.1 0.1-0.2 0-0.2 0-0.5 0-0.4 0-0.6-0.1-0.1-0.3-0.1-0.1 0-0.2 0.1-0.1 0-0.2 0.2h-0.5v-2.1h1.7v0.6h-1.1l-0.1 0.9q0.1-0.1 0.2-0.2 0.2 0 0.4 0 0.4 0 0.6 0.3 0.2 0.3 0.2 0.9 0 0.4-0.1 0.7-0.1 0.3-0.3 0.5-0.2 0.1-0.6 0.1-0.6 0-0.8-0.3z"/><path class="a" d="m38.5 54.9h-1v-0.5h1.7v0.4l-0.8 3.4h-0.6z"/><path fill-rule="evenodd" class="a" d="m67.9 29.3v14.2l-4.4 3.9v1.7c0 1.2-0.7 2.4-1.7 3l-25.8 14.7c-0.5 0.3-1.1 0.4-1.7 0.4-0.6 0-1.2-0.1-1.7-0.4l-25.9-14.7c-1-0.6-1.7-1.8-1.7-3v-1.8l-4.2-3.8v-14.2h4.2v-10.3c0-1.2 0.7-2.4 1.7-3l25.8-14.7c0.5-0.3 1.1-0.4 1.7-0.4 0.6 0 1.3 0.1 1.8 0.4l25.8 14.7c1 0.6 1.7 1.8 1.7 3v10.3zm-61.9 0h2v-8.9c0.1-0.9 0.7-2 1.5-2.5l23.3-13.3c0.4-0.2 1-0.3 1.5-0.3 0.5 0 1 0.1 1.4 0.3l23.4 13.3c0.8 0.5 1.4 1.6 1.5 2.5v8.9h2v-10.3c0-0.7-0.6-1.8-1.2-2.1l-25.9-14.8c-0.3-0.2-0.8-0.3-1.2-0.3-0.5 0-1 0.1-1.3 0.3l-25.8 14.8c-0.6 0.3-1.2 1.4-1.2 2.1zm54.1 0v-8.9c0-0.7-0.6-1.7-1.3-2.1l-23.3-13.3 0.1-0.2-0.1 0.2c-0.3-0.2-0.8-0.3-1.2-0.3-0.5 0-0.9 0.1-1.2 0.3l-23.4 13.3c-0.6 0.4-1.2 1.4-1.2 2.1v8.9h0.8l6.5-3.7-3.3 3.7h4.7l-0.7-4.1 2.3 1.2 6.4-4.7-7.4 7.6h6.3l3.6-5.5-3.1 0.4 2.8-3.8 1.2 1.6 9.5-9.6-13.9 16.9h10.3l5.6-6.1-6.3 1.7 8.2-8.6-5.5 1.1 4.4-7.3 7.5 9.7-13.7 9.5h13l3.3-5-3.9 0.7 3.5-6.2 8.4 10.5zm-58.3 13.2h65.2v-12.2h-65.2zm60.8 6.5v-5.6h-2.1v4.2c0 0.9-0.6 2-1.4 2.5l-23.3 13.3c-0.4 0.3-1 0.4-1.5 0.4-0.5 0-1-0.1-1.4-0.4l-23.4-13.3c-0.8-0.5-1.5-1.6-1.5-2.5v-4.2h-2v5.6c0 0.7 0.6 1.8 1.2 2.2l25.9 14.7c0.3 0.2 0.7 0.3 1.2 0.3 0.5 0 1-0.1 1.3-0.3l25.8-14.7c0.6-0.4 1.2-1.5 1.2-2.2zm-54.1-1.4c0 0.7 0.6 1.7 1.2 2.1l23.4 13.3c0.3 0.2 0.8 0.3 1.2 0.3 0.5 0 0.9-0.1 1.2-0.3l23.3-13.3c0.7-0.4 1.3-1.4 1.3-2.1v-4.2h-51.6z"/></g></svg>